<svg xmlns="http://www.w3.org/2000/svg" viewBox="22 108 643 390" role="img" aria-label="Traced aviator plane">
  <g transform="rotate(17.525800 353.870552 347.597324)">
    <path d="M533 108L534 108L534 109L536 109L536 110L537 110L537 112L538 112L538 113L539 113L539 115L540 115L540 116L541 116L541 118L542 118L542 119L543 119L543 120L544 120L544 122L545 122L545 124L546 124L546 125L547 125L547 127L548 127L548 128L549 128L549 129L550 129L550 132L551 132L551 133L552 133L552 134L553 134L553 136L554 136L554 137L555 137L555 138L556 138L556 140L557 140L557 141L558 141L558 143L559 143L559 145L560 145L560 146L561 146L561 147L562 147L562 149L563 149L563 151L564 151L564 152L565 152L565 154L566 154L566 156L567 156L567 157L568 157L568 158L569 158L569 159L570 159L570 161L571 161L571 163L572 163L572 164L573 164L573 166L574 166L574 168L575 168L575 170L576 170L576 172L577 172L577 174L578 174L578 177L579 177L579 180L580 180L580 183L581 183L581 186L582 186L582 190L583 190L583 193L584 193L584 196L585 196L585 199L586 199L586 202L587 202L587 205L588 205L588 209L589 209L589 212L590 212L590 215L591 215L591 218L592 218L592 221L593 221L593 225L594 225L594 229L595 229L595 231L596 231L596 234L597 234L597 237L598 237L598 239L581 239L581 240L579 240L579 241L577 241L577 238L576 238L576 237L575 237L575 235L574 235L574 233L573 233L573 231L572 231L572 230L571 230L571 228L570 228L570 226L569 226L569 225L568 225L568 223L567 223L567 220L566 220L566 219L565 219L565 217L564 217L564 215L563 215L563 213L562 213L562 212L561 212L561 210L560 210L560 209L559 209L559 207L558 207L558 205L557 205L557 203L556 203L556 201L555 201L555 200L554 200L554 198L553 198L553 196L552 196L552 194L551 194L551 193L550 193L550 191L549 191L549 188L548 188L548 186L547 186L547 183L546 183L546 181L545 181L545 178L544 178L544 175L543 175L543 172L542 172L542 168L541 168L541 165L540 165L540 162L539 162L539 158L538 158L538 155L537 155L537 152L536 152L536 148L535 148L535 144L534 144L534 141L533 141L533 137L532 137L532 134L531 134L531 130L530 130L530 126L529 126L529 123L528 123L528 117L529 117L529 113L530 113L530 111L531 111L531 110L532 110L532 109L533 109L533 108ZM534 115L534 116L533 116L533 119L532 119L532 125L533 125L533 127L534 127L534 129L535 129L535 130L536 130L536 132L537 132L537 133L538 133L538 134L539 134L539 136L540 136L540 137L541 137L541 139L542 139L542 140L543 140L543 141L544 141L544 143L545 143L545 144L546 144L546 146L547 146L547 147L548 147L548 148L549 148L549 150L550 150L550 151L551 151L551 152L552 152L552 154L553 154L553 155L554 155L554 156L555 156L555 158L556 158L556 159L557 159L557 161L558 161L558 162L559 162L559 163L560 163L560 164L561 164L561 166L562 166L562 167L563 167L563 168L564 168L564 169L565 169L565 171L566 171L566 172L567 172L567 173L568 173L568 175L569 175L569 176L571 176L571 175L572 175L572 170L571 170L571 168L570 168L570 167L569 167L569 165L568 165L568 163L567 163L567 162L566 162L566 160L565 160L565 159L564 159L564 157L563 157L563 156L562 156L562 154L561 154L561 153L560 153L560 151L559 151L559 150L558 150L558 148L557 148L557 147L556 147L556 145L555 145L555 143L554 143L554 142L553 142L553 141L552 141L552 139L551 139L551 138L550 138L550 136L549 136L549 135L548 135L548 133L547 133L547 132L546 132L546 130L545 130L545 129L544 129L544 127L543 127L543 126L542 126L542 124L541 124L541 122L540 122L540 121L539 121L539 120L538 120L538 118L537 118L537 117L536 117L536 115L534 115ZM542 227L555 227L555 228L558 228L558 229L560 229L560 230L562 230L562 231L563 231L563 232L564 232L564 233L565 233L565 234L566 234L566 235L567 235L567 237L568 237L568 238L569 238L569 240L570 240L570 242L571 242L571 244L572 244L572 247L573 247L573 249L574 249L574 251L575 251L575 253L576 253L576 256L577 256L577 258L578 258L578 261L579 261L579 263L580 263L580 265L581 265L581 268L582 268L582 270L583 270L583 272L584 272L584 274L585 274L585 276L586 276L586 279L587 279L587 281L588 281L588 283L589 283L589 286L590 286L590 288L591 288L591 291L592 291L592 294L593 294L593 296L594 296L594 299L595 299L595 315L594 315L594 316L593 316L593 318L592 318L592 320L591 320L591 321L590 321L590 322L589 322L589 324L587 324L587 325L586 325L586 326L585 326L585 327L584 327L584 328L583 328L583 329L581 329L581 330L580 330L580 331L578 331L578 332L577 332L577 333L576 333L576 334L574 334L574 335L572 335L572 336L571 336L571 337L569 337L569 338L567 338L567 339L566 339L566 340L564 340L564 341L562 341L562 342L560 342L560 343L559 343L559 344L557 344L557 345L555 345L555 346L553 346L553 347L552 347L552 348L549 348L549 349L547 349L547 350L545 350L545 351L543 351L543 352L541 352L541 353L539 353L539 354L537 354L537 355L534 355L534 356L533 356L533 357L531 357L531 358L528 358L528 359L526 359L526 360L524 360L524 361L522 361L522 362L519 362L519 363L518 363L518 364L515 364L515 365L513 365L513 366L511 366L511 367L508 367L508 368L506 368L506 369L503 369L503 370L501 370L501 371L499 371L499 372L496 372L496 373L494 373L494 374L492 374L492 375L490 375L490 376L487 376L487 377L484 377L484 378L481 378L481 379L479 379L479 380L477 380L477 381L475 381L475 382L472 382L472 383L470 383L470 384L468 384L468 385L466 385L466 386L462 386L462 387L459 387L459 388L457 388L457 389L454 389L454 390L451 390L451 391L448 391L448 392L446 392L446 393L442 393L442 394L439 394L439 395L437 395L437 396L434 396L434 397L431 397L431 398L428 398L428 399L425 399L425 400L422 400L422 401L419 401L419 402L416 402L416 403L413 403L413 404L410 404L410 405L407 405L407 406L404 406L404 407L401 407L401 408L398 408L398 409L395 409L395 410L392 410L392 411L389 411L389 412L385 412L385 413L383 413L383 414L379 414L379 415L376 415L376 416L373 416L373 417L370 417L370 418L368 418L368 419L364 419L364 420L361 420L361 421L357 421L357 422L354 422L354 423L351 423L351 424L348 424L348 425L345 425L345 426L342 426L342 427L339 427L339 428L335 428L335 429L332 429L332 430L329 430L329 431L326 431L326 432L323 432L323 433L320 433L320 434L317 434L317 435L313 435L313 436L310 436L310 437L307 437L307 438L304 438L304 439L301 439L301 440L297 440L297 441L294 441L294 442L291 442L291 443L287 443L287 444L284 444L284 445L281 445L281 446L278 446L278 447L275 447L275 448L272 448L272 449L268 449L268 450L265 450L265 451L262 451L262 452L258 452L258 453L255 453L255 454L252 454L252 455L249 455L249 456L246 456L246 457L243 457L243 458L240 458L240 459L236 459L236 460L233 460L233 461L230 461L230 462L227 462L227 463L224 463L224 464L220 464L220 465L217 465L217 466L214 466L214 467L211 467L211 468L208 468L208 469L204 469L204 470L201 470L201 471L197 471L197 472L195 472L195 473L191 473L191 474L188 474L188 475L186 475L186 476L183 476L183 477L179 477L179 478L175 478L175 479L173 479L173 480L170 480L170 481L166 481L166 482L163 482L163 483L160 483L160 484L156 484L156 485L154 485L154 486L150 486L150 487L147 487L147 488L144 488L144 489L141 489L141 490L137 490L137 491L135 491L135 492L132 492L132 493L129 493L129 494L126 494L126 495L123 495L123 496L120 496L120 497L116 497L116 498L113 498L113 497L112 497L112 496L111 496L111 495L110 495L110 493L109 493L109 490L108 490L108 488L107 488L107 487L105 487L105 488L102 488L102 489L95 489L95 488L94 488L94 487L93 487L93 486L92 486L92 485L91 485L91 484L90 484L90 482L89 482L89 481L88 481L88 480L86 480L86 479L87 479L87 478L90 478L90 477L92 477L92 476L94 476L94 475L96 475L96 474L98 474L98 473L112 473L112 472L121 472L121 471L127 471L127 470L133 470L133 469L138 469L138 468L142 468L142 467L146 467L146 466L151 466L151 465L155 465L155 464L159 464L159 463L163 463L163 462L169 462L169 461L171 461L171 460L174 460L174 459L178 459L178 458L182 458L182 457L185 457L185 456L189 456L189 455L192 455L192 454L196 454L196 453L200 453L200 452L202 452L202 451L206 451L206 450L209 450L209 449L212 449L212 448L215 448L215 447L219 447L219 446L222 446L222 445L226 445L226 444L229 444L229 443L231 443L231 442L235 442L235 441L238 441L238 440L240 440L240 439L244 439L244 438L247 438L247 437L250 437L250 436L253 436L253 435L256 435L256 434L259 434L259 433L262 433L262 432L265 432L265 431L268 431L268 430L271 430L271 429L274 429L274 428L277 428L277 427L280 427L280 426L283 426L283 425L286 425L286 424L288 424L288 423L291 423L291 422L294 422L294 421L297 421L297 420L300 420L300 419L302 419L302 418L305 418L305 417L308 417L308 416L311 416L311 415L314 415L314 414L317 414L317 413L319 413L319 412L322 412L322 411L325 411L325 410L327 410L327 409L331 409L331 408L332 408L332 407L336 407L336 406L339 406L339 405L342 405L342 404L344 404L344 403L347 403L347 402L350 402L350 401L352 401L352 400L355 400L355 399L358 399L358 398L360 398L360 397L363 397L363 396L366 396L366 395L368 395L368 394L371 394L371 393L374 393L374 392L376 392L376 391L379 391L379 390L382 390L382 389L385 389L385 388L387 388L387 387L390 387L390 386L393 386L393 385L395 385L395 384L398 384L398 383L401 383L401 382L403 382L403 381L406 381L406 380L408 380L408 379L411 379L411 378L414 378L414 377L416 377L416 376L418 376L418 375L421 375L421 374L424 374L424 373L427 373L427 372L429 372L429 371L431 371L431 370L434 370L434 369L436 369L436 368L439 368L439 367L441 367L441 366L444 366L444 365L447 365L447 364L449 364L449 363L451 363L451 362L450 362L450 361L424 361L424 360L422 360L422 361L417 361L417 362L415 362L415 363L413 363L413 364L411 364L411 365L409 365L409 366L407 366L407 367L405 367L405 368L402 368L402 369L400 369L400 370L398 370L398 371L396 371L396 372L393 372L393 373L391 373L391 374L389 374L389 375L386 375L386 376L384 376L384 377L382 377L382 378L379 378L379 379L377 379L377 380L374 380L374 381L372 381L372 382L370 382L370 383L367 383L367 384L363 384L363 385L362 385L362 386L359 386L359 387L357 387L357 388L355 388L355 389L352 389L352 390L350 390L350 391L347 391L347 392L345 392L345 393L342 393L342 394L339 394L339 395L337 395L337 396L334 396L334 397L331 397L331 398L329 398L329 399L327 399L327 400L324 400L324 401L321 401L321 402L318 402L318 403L316 403L316 404L313 404L313 405L311 405L311 406L308 406L308 407L305 407L305 408L302 408L302 409L300 409L300 410L297 410L297 411L294 411L294 412L291 412L291 413L288 413L288 414L284 414L284 415L282 415L282 416L279 416L279 417L275 417L275 418L268 418L268 417L267 417L267 416L266 416L266 415L265 415L265 414L264 414L264 413L262 413L262 412L261 412L261 411L260 411L260 410L258 410L258 409L257 409L257 408L256 408L256 407L255 407L255 406L254 406L254 405L252 405L252 406L249 406L249 407L247 407L247 408L244 408L244 409L242 409L242 410L239 410L239 411L237 411L237 412L235 412L235 413L232 413L232 414L230 414L230 415L227 415L227 416L225 416L225 417L223 417L223 418L221 418L221 419L218 419L218 420L215 420L215 421L213 421L213 422L211 422L211 423L208 423L208 424L206 424L206 425L204 425L204 426L201 426L201 427L198 427L198 428L196 428L196 429L194 429L194 430L192 430L192 431L189 431L189 432L187 432L187 433L184 433L184 434L182 434L182 435L179 435L179 436L177 436L177 437L174 437L174 438L172 438L172 439L170 439L170 440L167 440L167 441L165 441L165 442L163 442L163 443L160 443L160 444L158 444L158 445L155 445L155 446L153 446L153 447L150 447L150 448L148 448L148 449L146 449L146 450L143 450L143 451L140 451L140 452L138 452L138 453L136 453L136 454L134 454L134 455L131 455L131 456L129 456L129 457L126 457L126 458L124 458L124 459L120 459L120 458L119 458L119 452L120 452L120 451L121 451L121 450L122 450L122 449L124 449L124 448L126 448L126 447L128 447L128 446L130 446L130 445L132 445L132 444L134 444L134 443L135 443L135 442L138 442L138 441L140 441L140 438L137 438L137 437L134 437L134 438L126 438L126 437L120 437L120 436L117 436L117 435L114 435L114 434L111 434L111 433L109 433L109 432L107 432L107 431L105 431L105 430L103 430L103 429L102 429L102 428L100 428L100 427L98 427L98 426L96 426L96 425L95 425L95 424L93 424L93 423L92 423L92 422L91 422L91 421L89 421L89 420L88 420L88 419L86 419L86 418L85 418L85 417L84 417L84 416L83 416L83 415L81 415L81 414L78 414L78 413L71 413L71 414L68 414L68 415L67 415L67 416L66 416L66 419L67 419L67 420L68 420L68 421L69 421L69 422L70 422L70 423L71 423L71 424L72 424L72 425L73 425L73 426L74 426L74 428L75 428L75 429L76 429L76 430L77 430L77 431L78 431L78 432L79 432L79 433L80 433L80 434L81 434L81 435L82 435L82 436L83 436L83 437L84 437L84 438L85 438L85 439L86 439L86 440L87 440L87 441L88 441L88 442L89 442L89 444L91 444L91 445L92 445L92 447L93 447L93 448L94 448L94 449L95 449L95 450L96 450L96 451L97 451L97 452L98 452L98 453L99 453L99 454L100 454L100 455L101 455L101 456L102 456L102 457L103 457L103 458L104 458L104 459L105 459L105 460L106 460L106 461L107 461L107 462L108 462L108 463L109 463L109 464L108 464L108 465L105 465L105 466L102 466L102 467L99 467L99 466L98 466L98 465L97 465L97 464L96 464L96 463L95 463L95 462L94 462L94 461L93 461L93 460L92 460L92 459L91 459L91 458L90 458L90 457L89 457L89 456L88 456L88 455L87 455L87 454L86 454L86 453L85 453L85 452L84 452L84 451L83 451L83 450L82 450L82 449L81 449L81 448L80 448L80 447L78 447L78 445L77 445L77 444L76 444L76 443L74 443L74 442L73 442L73 441L72 441L72 440L71 440L71 439L70 439L70 438L69 438L69 437L68 437L68 436L67 436L67 435L66 435L66 434L65 434L65 433L64 433L64 432L63 432L63 431L62 431L62 430L61 430L61 429L60 429L60 428L59 428L59 427L58 427L58 426L56 426L56 425L55 425L55 423L54 423L54 422L52 422L52 421L51 421L51 420L50 420L50 419L49 419L49 418L45 418L45 419L43 419L43 420L41 420L41 421L39 421L39 422L37 422L37 423L34 423L34 424L32 424L32 425L30 425L30 426L28 426L28 427L25 427L25 428L22 428L22 425L23 425L23 424L22 424L22 422L23 422L23 417L24 417L24 414L26 414L26 413L27 413L27 412L28 412L28 411L30 411L30 410L32 410L32 409L34 409L34 408L36 408L36 407L38 407L38 406L41 406L41 405L42 405L42 404L44 404L44 403L46 403L46 402L48 402L48 401L50 401L50 400L52 400L52 399L53 399L53 398L55 398L55 397L57 397L57 396L59 396L59 395L60 395L60 390L58 390L58 389L57 389L57 390L55 390L55 391L53 391L53 392L52 392L52 393L49 393L49 394L47 394L47 395L45 395L45 396L43 396L43 397L42 397L42 398L39 398L39 399L38 399L38 400L36 400L36 401L34 401L34 402L33 402L33 400L32 400L32 396L33 396L33 394L34 394L34 393L36 393L36 392L37 392L37 391L39 391L39 390L41 390L41 389L43 389L43 388L44 388L44 387L46 387L46 386L48 386L48 385L49 385L49 384L51 384L51 383L53 383L53 382L56 382L56 381L58 381L58 380L61 380L61 379L64 379L64 378L74 378L74 379L77 379L77 380L79 380L79 381L81 381L81 382L83 382L83 384L84 384L84 385L86 385L86 386L88 386L88 387L89 387L89 388L91 388L91 389L92 389L92 390L93 390L93 391L95 391L95 392L96 392L96 393L98 393L98 394L99 394L99 395L100 395L100 396L101 396L101 397L103 397L103 398L104 398L104 399L105 399L105 400L106 400L106 401L108 401L108 402L109 402L109 403L111 403L111 404L112 404L112 405L113 405L113 406L115 406L115 407L116 407L116 408L118 408L118 409L119 409L119 410L121 410L121 411L122 411L122 412L124 412L124 413L125 413L125 414L126 414L126 415L128 415L128 416L130 416L130 417L131 417L131 418L133 418L133 419L135 419L135 420L138 420L138 421L139 421L139 422L143 422L143 423L146 423L146 424L155 424L155 423L158 423L158 422L161 422L161 421L163 421L163 420L165 420L165 419L168 419L168 418L170 418L170 417L172 417L172 416L174 416L174 415L176 415L176 414L179 414L179 413L180 413L180 412L182 412L182 411L185 411L185 410L187 410L187 409L189 409L189 408L191 408L191 407L193 407L193 406L195 406L195 405L197 405L197 404L199 404L199 403L201 403L201 402L203 402L203 401L205 401L205 400L207 400L207 399L209 399L209 398L211 398L211 397L213 397L213 396L215 396L215 395L217 395L217 394L219 394L219 393L221 393L221 392L223 392L223 391L225 391L225 390L227 390L227 389L229 389L229 388L231 388L231 387L233 387L233 386L235 386L235 385L236 385L236 384L238 384L238 383L240 383L240 382L242 382L242 381L244 381L244 380L246 380L246 379L248 379L248 378L250 378L250 377L252 377L252 376L254 376L254 375L256 375L256 374L257 374L257 373L259 373L259 372L261 372L261 371L263 371L263 370L264 370L264 369L265 369L265 368L266 368L266 366L267 366L267 365L266 365L266 363L262 363L262 364L261 364L261 365L258 365L258 366L256 366L256 367L254 367L254 368L252 368L252 369L250 369L250 370L248 370L248 371L246 371L246 372L244 372L244 373L242 373L242 374L239 374L239 375L237 375L237 376L235 376L235 377L233 377L233 378L231 378L231 379L229 379L229 380L226 380L226 381L224 381L224 382L223 382L223 383L221 383L221 384L219 384L219 385L217 385L217 386L214 386L214 387L212 387L212 388L210 388L210 389L208 389L208 390L207 390L207 389L206 389L206 383L207 383L207 382L208 382L208 381L210 381L210 380L212 380L212 379L214 379L214 378L216 378L216 377L218 377L218 376L220 376L220 375L221 375L221 374L222 374L222 371L221 371L221 370L220 370L220 369L218 369L218 368L217 368L217 366L216 366L216 365L215 365L215 364L212 364L212 365L210 365L210 366L209 366L209 367L206 367L206 368L205 368L205 369L202 369L202 370L200 370L200 371L198 371L198 372L196 372L196 373L194 373L194 374L192 374L192 375L190 375L190 376L188 376L188 377L186 377L186 378L184 378L184 379L182 379L182 380L180 380L180 381L178 381L178 382L176 382L176 383L174 383L174 384L172 384L172 385L170 385L170 386L168 386L168 387L166 387L166 388L164 388L164 389L162 389L162 390L160 390L160 391L158 391L158 392L156 392L156 391L157 391L157 387L158 387L158 381L159 381L159 377L160 377L160 373L161 373L161 372L162 372L162 370L163 370L163 369L164 369L164 368L166 368L166 367L168 367L168 366L170 366L170 365L171 365L171 364L174 364L174 363L175 363L175 362L177 362L177 361L179 361L179 360L181 360L181 359L183 359L183 358L185 358L185 357L187 357L187 356L188 356L188 355L190 355L190 354L192 354L192 353L194 353L194 352L196 352L196 351L198 351L198 350L200 350L200 349L202 349L202 348L203 348L203 347L205 347L205 346L207 346L207 345L209 345L209 344L211 344L211 343L213 343L213 342L215 342L215 340L216 340L216 335L215 335L215 332L214 332L214 331L213 331L213 332L210 332L210 333L209 333L209 334L207 334L207 335L204 335L204 336L202 336L202 337L200 337L200 338L198 338L198 339L195 339L195 340L191 340L191 339L190 339L190 338L189 338L189 337L188 337L188 336L187 336L187 335L186 335L186 333L185 333L185 332L184 332L184 331L183 331L183 330L182 330L182 329L181 329L181 328L180 328L180 327L179 327L179 326L178 326L178 325L177 325L177 324L176 324L176 323L175 323L175 322L174 322L174 321L173 321L173 320L172 320L172 319L171 319L171 318L170 318L170 316L169 316L169 315L167 315L167 313L168 313L168 311L169 311L169 310L170 310L170 309L171 309L171 308L172 308L172 307L173 307L173 306L175 306L175 305L176 305L176 304L178 304L178 303L180 303L180 302L181 302L181 301L183 301L183 300L185 300L185 299L188 299L188 298L191 298L191 297L195 297L195 296L202 296L202 295L212 295L212 296L222 296L222 297L230 297L230 298L238 298L238 299L245 299L245 300L252 300L252 301L261 301L261 302L269 302L269 303L275 303L275 304L283 304L283 305L290 305L290 306L298 306L298 307L304 307L304 308L313 308L313 309L319 309L319 310L327 310L327 311L334 311L334 312L340 312L340 313L347 313L347 314L355 314L355 315L362 315L362 316L368 316L368 317L375 317L375 318L382 318L382 319L388 319L388 320L397 320L397 321L404 321L404 322L409 322L409 323L417 323L417 324L423 324L423 325L431 325L431 326L437 326L437 327L443 327L443 328L446 328L446 329L448 329L448 330L449 330L449 335L448 335L448 337L447 337L447 339L446 339L446 342L449 342L449 343L452 343L452 344L454 344L454 345L457 345L457 346L460 346L460 347L463 347L463 348L465 348L465 349L468 349L468 350L470 350L470 351L473 351L473 350L475 350L475 349L478 349L478 348L480 348L480 347L483 347L483 346L485 346L485 345L487 345L487 344L490 344L490 343L492 343L492 342L494 342L494 341L496 341L496 340L499 340L499 339L501 339L501 338L503 338L503 337L505 337L505 336L507 336L507 335L509 335L509 334L512 334L512 333L514 333L514 332L515 332L515 331L517 331L517 330L519 330L519 329L521 329L521 328L523 328L523 327L525 327L525 326L527 326L527 325L529 325L529 324L530 324L530 323L533 323L533 322L534 322L534 321L536 321L536 320L538 320L538 319L540 319L540 318L541 318L541 317L543 317L543 316L545 316L545 315L546 315L546 314L548 314L548 313L550 313L550 312L551 312L551 311L553 311L553 310L555 310L555 309L556 309L556 308L558 308L558 307L560 307L560 306L562 306L562 305L564 305L564 306L566 306L566 307L567 307L567 308L568 308L568 309L569 309L569 310L571 310L571 311L573 311L573 312L577 312L577 311L578 311L578 310L579 310L579 307L578 307L578 306L577 306L577 304L576 304L576 302L575 302L575 301L574 301L574 298L573 298L573 297L572 297L572 295L571 295L571 293L570 293L570 291L569 291L569 289L568 289L568 287L567 287L567 285L566 285L566 282L565 282L565 280L564 280L564 278L563 278L563 276L562 276L562 274L561 274L561 272L560 272L560 269L559 269L559 267L558 267L558 265L557 265L557 262L556 262L556 260L555 260L555 258L554 258L554 255L553 255L553 253L552 253L552 250L551 250L551 247L550 247L550 244L549 244L549 241L548 241L548 240L547 240L547 239L546 239L546 238L545 238L545 237L528 237L528 238L522 238L522 239L517 239L517 240L513 240L513 241L510 241L510 242L507 242L507 243L504 243L504 244L501 244L501 245L498 245L498 246L495 246L495 247L492 247L492 248L489 248L489 249L487 249L487 250L484 250L484 251L482 251L482 252L479 252L479 253L476 253L476 254L474 254L474 255L471 255L471 256L469 256L469 257L466 257L466 258L464 258L464 259L462 259L462 260L459 260L459 261L457 261L457 262L454 262L454 263L452 263L452 264L450 264L450 265L448 265L448 266L446 266L446 267L444 267L444 268L442 268L442 269L439 269L439 270L437 270L437 271L435 271L435 272L433 272L433 273L431 273L431 274L429 274L429 275L427 275L427 276L425 276L425 277L423 277L423 278L421 278L421 279L419 279L419 280L417 280L417 281L415 281L415 282L413 282L413 283L411 283L411 284L409 284L409 285L407 285L407 286L405 286L405 287L403 287L403 288L401 288L401 289L399 289L399 290L397 290L397 291L395 291L395 292L394 292L394 293L392 293L392 294L389 294L389 295L388 295L388 296L386 296L386 297L384 297L384 298L382 298L382 299L379 299L379 300L378 300L378 301L376 301L376 302L375 302L375 303L374 303L374 306L373 306L373 305L363 305L363 304L351 304L351 303L341 303L341 302L331 302L331 301L320 301L320 300L319 300L319 298L320 298L320 294L321 294L321 288L322 288L322 287L323 287L323 285L324 285L324 283L325 283L325 282L326 282L326 281L327 281L327 280L328 280L328 279L329 279L329 278L330 278L330 277L332 277L332 276L333 276L333 275L335 275L335 274L336 274L336 273L339 273L339 271L341 271L341 270L342 270L342 269L343 269L343 268L345 268L345 267L347 267L347 266L348 266L348 265L350 265L350 264L351 264L351 263L353 263L353 262L355 262L355 261L356 261L356 260L358 260L358 259L360 259L360 258L361 258L361 257L363 257L363 256L365 256L365 255L368 255L368 254L369 254L369 253L371 253L371 252L373 252L373 251L375 251L375 250L377 250L377 249L379 249L379 248L382 248L382 247L384 247L384 246L386 246L386 245L389 245L389 244L393 244L393 243L396 243L396 242L401 242L401 241L406 241L406 242L410 242L410 243L412 243L412 244L415 244L415 245L417 245L417 246L420 246L420 247L422 247L422 248L424 248L424 249L427 249L427 250L430 250L430 251L432 251L432 252L437 252L437 253L442 253L442 252L448 252L448 251L453 251L453 250L457 250L457 249L460 249L460 248L464 248L464 247L468 247L468 246L472 246L472 245L475 245L475 244L479 244L479 243L483 243L483 242L486 242L486 241L489 241L489 240L493 240L493 239L497 239L497 238L500 238L500 237L503 237L503 236L507 236L507 235L510 235L510 234L515 234L515 233L518 233L518 232L522 232L522 231L526 231L526 230L531 230L531 229L536 229L536 228L542 228L542 227ZM583 243L608 243L608 244L615 244L615 245L618 245L618 246L619 246L619 251L618 251L618 253L617 253L617 255L616 255L616 257L615 257L615 259L614 259L614 261L613 261L613 262L612 262L612 264L611 264L611 265L610 265L610 267L609 267L609 268L608 268L608 269L607 269L607 270L606 270L606 272L605 272L605 273L604 273L604 274L603 274L603 275L602 275L602 276L601 276L601 277L600 277L600 278L598 278L598 279L596 279L596 278L595 278L595 277L594 277L594 275L593 275L593 273L592 273L592 272L591 272L591 269L590 269L590 267L589 267L589 265L588 265L588 263L587 263L587 260L586 260L586 258L585 258L585 256L584 256L584 253L583 253L583 251L582 251L582 249L581 249L581 244L583 244L583 243ZM586 246L586 247L585 247L585 251L586 251L586 253L587 253L587 255L588 255L588 257L589 257L589 260L592 260L592 259L594 259L594 258L596 258L596 257L599 257L599 256L601 256L601 255L603 255L603 254L606 254L606 253L608 253L608 252L610 252L610 251L612 251L612 250L615 250L615 249L616 249L616 248L615 248L615 247L611 247L611 246L586 246ZM396 247L396 248L394 248L394 249L392 249L392 250L391 250L391 252L393 252L393 253L396 253L396 254L398 254L398 255L400 255L400 256L403 256L403 257L406 257L406 258L408 258L408 259L411 259L411 260L413 260L413 261L414 261L414 264L413 264L413 265L411 265L411 266L410 266L410 267L407 267L407 268L406 268L406 269L404 269L404 270L402 270L402 271L400 271L400 272L399 272L399 277L400 277L400 278L404 278L404 277L406 277L406 276L408 276L408 275L410 275L410 274L412 274L412 273L414 273L414 272L416 272L416 271L418 271L418 270L420 270L420 269L422 269L422 268L423 268L423 267L425 267L425 266L427 266L427 265L429 265L429 264L431 264L431 263L433 263L433 261L434 261L434 260L433 260L433 259L432 259L432 258L430 258L430 257L428 257L428 256L426 256L426 255L424 255L424 254L421 254L421 253L419 253L419 252L416 252L416 251L413 251L413 250L411 250L411 249L409 249L409 248L406 248L406 247L396 247ZM518 250L519 250L519 262L518 262L518 274L517 274L517 280L516 280L516 286L515 286L515 288L516 288L516 289L517 289L517 291L518 291L518 292L519 292L519 293L520 293L520 294L521 294L521 295L522 295L522 297L523 297L523 298L524 298L524 299L525 299L525 301L526 301L526 302L527 302L527 303L528 303L528 305L529 305L529 307L527 307L527 308L524 308L524 309L521 309L521 308L520 308L520 307L519 307L519 306L518 306L518 304L517 304L517 303L516 303L516 302L515 302L515 301L514 301L514 299L513 299L513 301L512 301L512 303L511 303L511 305L510 305L510 308L509 308L509 311L508 311L508 312L507 312L507 314L506 314L506 316L505 316L505 317L503 317L503 318L501 318L501 319L499 319L499 320L497 320L497 321L494 321L494 322L492 322L492 323L491 323L491 321L492 321L492 319L493 319L493 318L494 318L494 316L495 316L495 314L496 314L496 312L497 312L497 310L498 310L498 308L499 308L499 306L500 306L500 304L501 304L501 302L502 302L502 299L503 299L503 297L504 297L504 294L505 294L505 292L506 292L506 289L505 289L505 288L504 288L504 287L503 287L503 285L502 285L502 284L501 284L501 283L500 283L500 282L499 282L499 280L498 280L498 279L497 279L497 278L496 278L496 277L495 277L495 275L494 275L494 274L493 274L493 272L492 272L492 271L491 271L491 270L493 270L493 269L495 269L495 268L497 268L497 267L499 267L499 268L500 268L500 269L501 269L501 271L502 271L502 272L503 272L503 273L504 273L504 274L505 274L505 275L506 275L506 277L507 277L507 278L508 278L508 280L510 280L510 277L511 277L511 274L512 274L512 271L513 271L513 267L514 267L514 264L515 264L515 260L516 260L516 257L517 257L517 253L518 253L518 250ZM379 258L379 259L375 259L375 260L372 260L372 261L369 261L369 262L366 262L366 263L364 263L364 264L362 264L362 265L360 265L360 266L358 266L358 267L357 267L357 268L355 268L355 269L353 269L353 270L351 270L351 271L350 271L350 272L348 272L348 273L347 273L347 274L346 274L346 275L345 275L345 276L343 276L343 277L342 277L342 278L340 278L340 279L339 279L339 280L338 280L338 281L337 281L337 282L338 282L338 283L339 283L339 282L340 282L340 283L346 283L346 284L361 284L361 283L363 283L363 282L365 282L365 281L366 281L366 280L368 280L368 279L370 279L370 278L372 278L372 277L374 277L374 276L375 276L375 275L377 275L377 274L379 274L379 273L381 273L381 272L384 272L384 271L386 271L386 270L388 270L388 269L390 269L390 268L392 268L392 267L394 267L394 266L397 266L397 265L399 265L399 264L402 264L402 262L400 262L400 261L397 261L397 260L393 260L393 259L389 259L389 258L379 258ZM612 270L613 270L613 272L614 272L614 274L615 274L615 276L616 276L616 278L617 278L617 280L618 280L618 281L619 281L619 283L620 283L620 285L621 285L621 286L622 286L622 288L623 288L623 290L624 290L624 292L625 292L625 294L626 294L626 296L627 296L627 298L628 298L628 300L629 300L629 301L630 301L630 303L631 303L631 305L632 305L632 307L633 307L633 308L634 308L634 310L635 310L635 312L636 312L636 314L637 314L637 315L638 315L638 317L639 317L639 319L640 319L640 321L641 321L641 323L642 323L642 325L643 325L643 327L644 327L644 329L645 329L645 331L646 331L646 334L647 334L647 336L648 336L648 340L649 340L649 343L650 343L650 345L651 345L651 349L652 349L652 352L653 352L653 355L654 355L654 358L655 358L655 361L656 361L656 366L657 366L657 368L658 368L658 372L659 372L659 375L660 375L660 379L661 379L661 382L662 382L662 386L663 386L663 389L664 389L664 393L665 393L665 402L664 402L664 404L663 404L663 407L662 407L662 408L660 408L660 409L659 409L659 408L657 408L657 407L656 407L656 405L655 405L655 404L654 404L654 402L653 402L653 401L652 401L652 399L651 399L651 398L650 398L650 397L649 397L649 395L648 395L648 393L647 393L647 392L646 392L646 391L645 391L645 389L644 389L644 388L643 388L643 386L642 386L642 385L641 385L641 383L640 383L640 382L639 382L639 380L638 380L638 379L637 379L637 377L636 377L636 376L635 376L635 374L634 374L634 373L633 373L633 371L632 371L632 370L631 370L631 368L630 368L630 366L629 366L629 365L628 365L628 364L627 364L627 362L626 362L626 361L625 361L625 359L624 359L624 358L623 358L623 356L622 356L622 355L621 355L621 353L620 353L620 352L619 352L619 350L618 350L618 348L617 348L617 345L616 345L616 343L615 343L615 340L614 340L614 337L613 337L613 333L612 333L612 329L611 329L611 326L610 326L610 323L609 323L609 320L608 320L608 317L607 317L607 314L606 314L606 311L605 311L605 307L604 307L604 304L603 304L603 300L602 300L602 297L601 297L601 294L600 294L600 290L599 290L599 287L598 287L598 283L601 283L601 282L602 282L602 281L603 281L603 280L604 280L604 279L605 279L605 278L606 278L606 277L607 277L607 275L608 275L608 274L609 274L609 273L610 273L610 272L611 272L611 271L612 271L612 270ZM479 276L480 276L480 277L481 277L481 278L482 278L482 279L483 279L483 281L484 281L484 282L485 282L485 283L486 283L486 284L487 284L487 285L488 285L488 286L489 286L489 288L490 288L490 289L491 289L491 290L492 290L492 291L493 291L493 292L494 292L494 293L495 293L495 296L494 296L494 298L493 298L493 299L492 299L492 301L491 301L491 303L490 303L490 305L489 305L489 307L488 307L488 309L487 309L487 311L486 311L486 313L485 313L485 315L484 315L484 316L483 316L483 318L482 318L482 320L481 320L481 323L479 323L479 324L476 324L476 323L470 323L470 322L465 322L465 321L460 321L460 320L455 320L455 319L450 319L450 318L445 318L445 317L439 317L439 316L434 316L434 315L429 315L429 314L424 314L424 313L419 313L419 312L413 312L413 311L409 311L409 310L404 310L404 309L399 309L399 308L401 308L401 307L403 307L403 306L406 306L406 305L408 305L408 304L410 304L410 303L413 303L413 302L416 302L416 301L418 301L418 300L421 300L421 299L424 299L424 298L426 298L426 297L428 297L428 296L431 296L431 295L433 295L433 294L435 294L435 293L438 293L438 292L441 292L441 291L443 291L443 290L446 290L446 289L448 289L448 288L451 288L451 287L453 287L453 286L456 286L456 285L458 285L458 284L460 284L460 283L463 283L463 282L465 282L465 281L468 281L468 280L470 280L470 279L473 279L473 278L475 278L475 277L479 277L479 276ZM215 301L215 302L213 302L213 305L215 305L215 306L221 306L221 307L226 307L226 308L231 308L231 309L236 309L236 310L241 310L241 311L245 311L245 312L251 312L251 313L256 313L256 314L261 314L261 315L265 315L265 316L270 316L270 317L275 317L275 318L279 318L279 319L285 319L285 320L290 320L290 321L296 321L296 322L299 322L299 323L305 323L305 324L310 324L310 325L315 325L315 326L320 326L320 327L325 327L325 328L329 328L329 329L334 329L334 330L339 330L339 331L345 331L345 332L349 332L349 333L355 333L355 334L359 334L359 335L364 335L364 336L368 336L368 337L374 337L374 338L379 338L379 339L384 339L384 340L388 340L388 341L393 341L393 342L398 342L398 343L404 343L404 344L410 344L410 345L414 345L414 346L419 346L419 347L425 347L425 346L429 346L429 345L431 345L431 344L432 344L432 343L434 343L434 342L435 342L435 341L436 341L436 340L437 340L437 339L438 339L438 338L439 338L439 336L440 336L440 333L439 333L439 332L433 332L433 331L427 331L427 330L418 330L418 329L412 329L412 328L405 328L405 327L397 327L397 326L390 326L390 325L383 325L383 324L376 324L376 323L368 323L368 322L361 322L361 321L353 321L353 320L347 320L347 319L339 319L339 318L333 318L333 317L325 317L325 316L317 316L317 315L310 315L310 314L303 314L303 313L295 313L295 312L289 312L289 311L281 311L281 310L274 310L274 309L267 309L267 308L259 308L259 307L252 307L252 306L244 306L244 305L239 305L239 304L230 304L230 303L224 303L224 302L217 302L217 301L215 301ZM622 341L622 343L621 343L621 348L622 348L622 350L623 350L623 351L624 351L624 353L625 353L625 354L626 354L626 356L627 356L627 357L628 357L628 359L629 359L629 360L630 360L630 362L631 362L631 363L632 363L632 365L633 365L633 366L634 366L634 368L635 368L635 369L636 369L636 371L637 371L637 373L638 373L638 374L639 374L639 375L640 375L640 377L641 377L641 378L642 378L642 380L643 380L643 381L644 381L644 383L645 383L645 385L646 385L646 386L647 386L647 388L648 388L648 389L649 389L649 391L650 391L650 392L651 392L651 393L652 393L652 395L653 395L653 396L654 396L654 398L655 398L655 399L656 399L656 401L657 401L657 402L658 402L658 403L660 403L660 401L661 401L661 393L660 393L660 390L659 390L659 389L658 389L658 387L657 387L657 386L656 386L656 385L655 385L655 383L654 383L654 382L653 382L653 380L652 380L652 379L651 379L651 377L650 377L650 376L649 376L649 375L648 375L648 373L647 373L647 372L646 372L646 370L645 370L645 369L644 369L644 368L643 368L643 367L642 367L642 365L641 365L641 364L640 364L640 363L639 363L639 361L638 361L638 360L637 360L637 359L636 359L636 358L635 358L635 356L634 356L634 354L633 354L633 353L632 353L632 352L631 352L631 351L630 351L630 349L629 349L629 348L628 348L628 347L627 347L627 345L626 345L626 344L625 344L625 343L624 343L624 341L622 341Z" fill="#f3043f" fill-rule="evenodd"/>
  </g>
</svg>
